<svg id="visual" viewBox="0 0 900 600" width="900" height="600" xmlns="http://www.w3.org/2000/svg" xmlns:xlink="http://www.w3.org/1999/xlink" version="1.1"><rect x="0" y="0" width="900" height="600" fill="#150578"></rect><path d="M0 174L18.8 168.5C37.7 163 75.3 152 112.8 135.8C150.3 119.7 187.7 98.3 225.2 95.2C262.7 92 300.3 107 337.8 120.3C375.3 133.7 412.7 145.3 450.2 156C487.7 166.7 525.3 176.3 562.8 160.3C600.3 144.3 637.7 102.7 675.2 92.7C712.7 82.7 750.3 104.3 787.8 105.8C825.3 107.3 862.7 88.7 881.3 79.3L900 70L900 0L881.3 0C862.7 0 825.3 0 787.8 0C750.3 0 712.7 0 675.2 0C637.7 0 600.3 0 562.8 0C525.3 0 487.7 0 450.2 0C412.7 0 375.3 0 337.8 0C300.3 0 262.7 0 225.2 0C187.7 0 150.3 0 112.8 0C75.3 0 37.7 0 18.8 0L0 0Z" fill="#071A51" stroke-linecap="round" stroke-linejoin="miter"></path></svg>